# xmcd
#
# Track frame offsets:
#	150
#	19375
#	49002
#	71577
#
# Disc length: 1203 seconds
# Revision: 0
# Processed by: cddbd v1.5.2PL0 Copyright (c) Steve Scherf et al.
# Submitted via: dBpowerAMP V12.0
#
DISCID=3104b104
DTITLE=A Way Of Life - Trippin' On Your Love [CD Single)
DYEAR=1990
DGENRE=Soul
TTITLE0=Trippin' On Your Love
TTITLE1=Trippin' On Your Love (Full Length Version)
TTITLE2=Distant Thunder
TTITLE3=Trippin' On Your Love (Subliminal Club Edit)
EXTD=
EXTT0=
EXTT1=
EXTT2=
EXTT3=
PLAYORDER=
